PathFileType	4	(X/Y/Z)	s09c0402.trc
DataRate	CameraRate	NumFrames	NumMarkers	Units	OrigDataRate	OrigDataStartFrame	OrigNumFrames
200	200	4	50	mm	200	1250	2000
Frame#	Time	racr			lacr			c7			jug			rlel			rdr			llel			ldr			s2			lic			ric			lasi			rasi			rpsi			lpsi			rgt			lgt			rth1			rth2			rth3			rth4			rlfc			rmfc			rsh1			rsh2			rsh3			rsh4			rlmal			rmmal			rcal			rtoe			rmt5			lth1			lth2			lth4			lth3			llfc			lmfc			llmal			lmmal			lcal			lmt5			lsh1			lsh2			lsh3			lsh4			ltoe			SBIKE			LBIKE			RBIKE			
		X1	Y1	Z1	X2	Y2	Z2	X3	Y3	Z3	X4	Y4	Z4	X5	Y5	Z5	X6	Y6	Z6	X7	Y7	Z7	X8	Y8	Z8	X9	Y9	Z9	X10	Y10	Z10	X11	Y11	Z11	X12	Y12	Z12	X13	Y13	Z13	X14	Y14	Z14	X15	Y15	Z15	X16	Y16	Z16	X17	Y17	Z17	X18	Y18	Z18	X19	Y19	Z19	X20	Y20	Z20	X21	Y21	Z21	X22	Y22	Z22	X23	Y23	Z23	X24	Y24	Z24	X25	Y25	Z25	X26	Y26	Z26	X27	Y27	Z27	X28	Y28	Z28	X29	Y29	Z29	X30	Y30	Z30	X31	Y31	Z31	X32	Y32	Z32	X33	Y33	Z33	X34	Y34	Z34	X35	Y35	Z35	X36	Y36	Z36	X37	Y37	Z37	X38	Y38	Z38	X39	Y39	Z39	X40	Y40	Z40	X41	Y41	Z41	X42	Y42	Z42	X43	Y43	Z43	X44	Y44	Z44	X45	Y45	Z45	X46	Y46	Z46	X47	Y47	Z47	X48	Y48	Z48	X49	Y49	Z49	X50	Y50	Z50	
1250	6.2500	704.375818	1282.213321	-33.875482	709.338599	1250.288668	-412.982862	722.853386	1352.187851	-231.333405	716.779262	1218.910038	-222.319579	538.833891	1084.322278	36.479846	688.937858	909.444289	-29.367894	520.685706	1079.514168	-532.109425	678.178400	904.500179	-463.013852	243.500902	1166.587720	-233.848393	392.084799	1137.605592	-367.490839	369.715385	1135.571243	-72.313820	413.019726	1076.094425	-336.109252	404.416347	1075.738090	-91.252748	275.880474	1187.848891	-170.397324	284.479064	1196.926943	-281.696538	309.245062	989.795146	-43.877304	343.194563	1023.484854	-420.135850	364.099318	857.482588	-48.606865	414.624204	786.311349	-57.333778	416.500602	698.030682	-70.952195	445.015118	796.772474	-75.009472	438.933478	608.081865	-100.505848	421.273888	588.503129	-194.711533	384.132493	518.607703	-67.866347	380.031504	429.751176	-82.104944	332.842139	356.480771	-83.084831	406.235898	425.538168	-111.511214	296.233501	258.790568	-82.354629	300.392354	271.386584	-158.369039	216.669767	241.783903	-121.241566	470.345002	166.507762	-128.085578	387.082833	170.419777	-62.049349	427.075411	919.683888	-421.221365	500.439546	876.708518	-414.598816	524.984330	899.933825	-397.728559	545.837493	798.849176	-415.271131	578.006876	710.950117	-400.425204	580.939256	689.108561	-301.982437	233.240550	588.210524	-410.857528	252.536197	580.280672	-338.032724	161.072279	621.410438	-370.756798	228.656766	461.591655	-430.213033	488.475174	675.054054	-422.443748	415.957228	627.768365	-412.544178	327.101153	622.369289	-413.183571	426.290994	603.988253	-382.851529	296.362800	399.590630	-359.838970	-64.327840	852.669276	-240.019123	21.153833	84.024108	-442.039776	21.185932	83.898942	-43.886564	
1251	6.2550	705.408027	1283.829450	-37.402528	708.615756	1249.456252	-416.344768	721.772836	1352.903590	-234.203069	716.872503	1219.058724	-225.668854	541.012734	1086.027261	35.837135	689.311169	909.385187	-30.528956	519.168889	1078.063202	-533.443987	678.055035	904.601472	-462.830425	243.612724	1165.815590	-230.712784	390.426919	1138.389665	-367.022387	371.703934	1133.775309	-71.478690	412.196750	1076.597003	-336.101391	405.980537	1074.288249	-91.719246	276.797318	1186.794918	-167.318619	283.801949	1196.776027	-278.364516	310.704030	987.626279	-42.717595	341.722209	1025.311396	-418.622259	362.439161	855.183820	-48.771786	411.052894	782.775637	-57.731348	410.644975	694.411227	-71.647093	441.393710	792.498439	-75.988272	430.667156	604.568322	-101.323256	411.240292	585.284269	-195.526556	375.978212	515.332941	-68.152187	372.023269	426.337312	-82.408702	325.017328	352.924859	-83.086531	397.965435	422.201441	-112.166220	288.232780	255.216821	-82.092651	292.617836	267.458647	-158.199019	208.820757	239.829874	-121.276374	461.120396	159.474734	-128.065318	377.888426	164.973502	-61.935049	428.560246	923.083128	-420.033188	503.396895	882.344643	-413.111277	528.329490	905.437285	-395.635835	550.402585	805.336663	-415.600384	584.900659	717.716995	-400.144635	587.948378	695.765511	-301.342806	240.298933	593.309553	-410.677293	259.494751	586.075493	-337.791143	166.971163	625.620034	-370.788981	238.057080	467.339807	-430.419012	495.637875	681.935401	-421.819567	423.211301	634.451244	-412.206000	334.381732	628.918341	-412.833031	433.576786	610.489024	-382.666391	306.995915	406.657792	-360.089447	-64.361100	852.657693	-240.044543	21.161452	84.015354	-442.045642	21.181051	83.898913	-43.893958	
1252	6.2600	706.318362	1285.477052	-40.941454	707.812197	1248.547727	-419.738143	721.638200	1353.103021	-238.491679	716.933187	1219.339689	-229.108375	543.230732	1087.602827	35.050930	689.827462	909.302501	-31.439704	517.687582	1076.594800	-534.768286	677.971678	904.855148	-462.789878	243.485034	1165.139128	-227.267930	388.647420	1139.255595	-366.319659	373.979243	1132.009024	-70.716787	411.360425	1077.128620	-336.166994	407.599238	1072.692699	-92.162398	277.750550	1185.816068	-164.278253	282.828177	1196.787990	-275.407534	312.347365	985.515293	-41.482257	340.109677	1027.098492	-417.183818	360.940903	853.300893	-48.340683	407.526966	779.704563	-58.075621	404.972001	691.459037	-72.063417	437.853694	788.659557	-76.883434	422.727466	601.319596	-101.886381	401.251043	582.664750	-196.289071	367.964458	512.411265	-68.603510	364.177738	423.512577	-82.555636	317.261220	350.025676	-83.011924	389.853103	419.398658	-112.668766	280.242265	252.512042	-81.816835	284.788154	264.449659	-157.927952	201.071763	238.295964	-121.221271	451.609903	153.133449	-128.019869	368.431184	160.322105	-61.918325	429.906057	926.567067	-419.085368	505.860696	887.378665	-411.947856	530.214492	911.240103	-394.670689	554.692140	811.934511	-415.792502	591.329425	724.630022	-400.045164	594.421178	703.285100	-299.044153	247.350704	597.949598	-410.463711	266.428907	591.237277	-337.506329	172.946583	629.187398	-371.160923	247.638366	472.453164	-430.526420	502.443381	688.881554	-421.235439	430.249484	640.923323	-411.859910	341.447234	634.982887	-412.520151	440.339513	616.944024	-382.544472	318.187922	413.472244	-360.418600	-64.381224	852.658001	-240.075632	21.162424	84.003619	-442.038295	21.170985	83.922714	-43.915791	
1253	6.2650	707.183824	1286.929028	-44.582814	706.960752	1247.681945	-423.384517	721.445935	1353.207885	-242.825815	717.008911	1219.424044	-232.457580	545.503465	1089.123518	34.163563	690.351811	909.163756	-32.235285	516.397298	1075.255054	-536.818451	678.016466	905.229789	-462.950347	243.399903	1164.635857	-223.639820	386.822603	1140.243031	-365.788744	376.437522	1130.236182	-70.198871	410.581011	1077.729405	-336.257017	409.280058	1071.132176	-92.478596	278.591286	1185.058078	-161.087828	281.660463	1196.837118	-272.420006	314.111539	983.698817	-40.238320	338.411148	1028.825495	-415.632320	359.668824	851.446253	-47.894333	404.122717	776.361265	-57.996688	399.512955	688.817237	-72.137726	434.299345	785.023930	-78.102843	415.003799	598.579768	-102.554789	391.453496	580.393904	-196.273723	360.133785	510.034552	-69.032945	356.477526	421.271892	-82.584243	309.536551	347.756149	-82.828895	381.960330	417.190078	-112.845283	272.243023	250.182860	-81.942102	276.748775	262.127739	-157.561369	193.314043	237.393403	-121.083792	441.822386	147.247041	-127.959463	359.001316	156.115902	-61.817308	431.275799	930.092312	-417.914942	508.218865	892.705459	-410.889614	532.034493	917.033152	-393.707486	558.699727	818.569409	-415.655613	597.616526	731.605400	-399.828436	600.899305	709.776883	-299.327606	254.413075	601.925889	-410.215345	273.476723	595.748476	-337.260651	178.633885	631.738155	-370.943698	257.356870	477.027803	-430.743521	508.839174	695.666496	-420.693748	436.986043	647.052129	-411.552476	348.277753	640.503768	-412.122376	447.282237	623.267812	-382.283261	329.297690	419.711679	-360.553351	-64.425394	852.649001	-240.057902	21.169142	83.994809	-442.045382	21.166159	83.887131	-43.899316	
